<svg width="16" height="16" viewBox="0 0 16 16" xmlns="http://www.w3.org/2000/svg">
  <path
    d="M2 7.5 L7 5"
    stroke="currentColor"
    stroke-width="1.5"
    stroke-linecap="round"
    fill="none"
  />
  <path
    d="M7 5
       C 7 3.6, 8 3, 8.7 3
       C 9.4 3, 10 3.6, 10 4.3
       L 10 6.5
       C 10.6 6.3, 11.2 6.6, 11.3 7.2
       L 11.5 8
       C 12.1 7.9, 12.7 8.3, 12.7 8.9
       L 12.7 11.5
       C 12.7 12.6, 11.8 13.5, 10.7 13.5
       L 8.5 13.5
       C 7.4 13.5, 6.5 12.6, 6.5 11.5
       L 6.5 7.5
       C 6.5 6.5, 6.7 5.7, 7 5
       Z"
    fill="none"
    stroke="currentColor"
    stroke-width="1.1"
    stroke-linejoin="round"
  />
</svg>
