<svg xmlns="http://www.w3.org/2000/svg" width="24" height="24" viewBox="0 0 24 24" fill="none" stroke="currentColor" stroke-width="1.5" stroke-linecap="round" stroke-linejoin="round">

      <path d="M3 21l1.3-1.3 9.7-9.7-1.3-1.3L3 18.4z"></path>
      
      <path d="M4.3 19.7l1.3 1.3" opacity="0.7"></path>
      
      <path d="M17 3l1.3 2.7 3 .4-2.2 2.1.5 3L17 9.8l-2.6 1.4.5-3-2.2-2.1 3-.4z"></path>
      
      <path d="M21.5 12v1.4M21.5 14.6V16M20.2 13.7h1.1M21.7 13.7h1.1"></path>
      
      <path d="M9 4v1.2M9 6v1.2M7.8 5.6h1M9.2 5.6h1"></path>
</svg>