<svg xmlns="http://www.w3.org/2000/svg" width="24" height="24" viewBox="0 0 24 24" fill="none" stroke="currentColor" stroke-width="1.5" stroke-linecap="round" stroke-linejoin="round">

      <path d="M12 3c1 2.5 4 4.5 4 8.5 0 3.6-2.7 6.5-6 6.5s-6-2.6-6-6.5C4 8 7 7 9 4c.5 1.5 1 2.5 2 3 .5-1.2.7-2.6 1-4z"></path>
      
      <path d="M12 9c.5 1.5 2 2.5 2 4.5 0 1.8-1.3 3-3 3s-3-1.2-3-3c0-1.5 1-2.2 2-3.5.3.7.5 1.2 1 1.5.3-.6.6-1.3 1-2.5z" opacity="0.7"></path>
      
      <path d="M5 21h14"></path>
</svg>